<svg xmlns="http://www.w3.org/2000/svg" fill="none" height="542" preserveAspectRatio="xMidYMid meet" width="614" zoomAndPan="magnify" xmlns:v="https://vecta.io/nano"><style><![CDATA[.B{opacity:.42}.C{fill:#4570b4}.D{fill:#fff}.E{stroke-miterlimit:10}.F{stroke:#4570b4}.G{fill:#00496a}.H{fill:#68a8de}.I{fill:#c6606c}.J{fill:#ff6a76}.K{fill:#375c93}]]></style><g clip-path="url(#A)"><path d="M563.712 308.063c-6.272 135.571-126.926 174.166-277.209 177.059-229.162 4.426-255.839-68.353-255.839-204.065S80.626 5.22 213.086 15.546c62.931 4.908 134.362 109.174 187.843 143.769 73.885 47.8 167.508 46.907 162.783 148.748z" fill="#d4e7ff"/><path d="M27.146 364.842s47.734-20.823 69.671-88.693c21.951-67.885 61.725-125.046 137.114-128.876 75.376-3.844 156.909.879 183.855-39.574 26.932-40.452-30.635-41.374-31.444 29.603s123.251 201.143 129.736 302.219-77.277 81.019-181.343 40.381c-104.067-40.623-212.703 39.772-280.416 9.702-67.713-30.084-64.776-94.394-27.173-124.762z" class="B E F"/><path d="M37.276 286.177c15.117 0 27.372-12.25 27.372-27.361s-12.255-27.361-27.372-27.361-27.372 12.25-27.372 27.361 12.255 27.361 27.372 27.361z" class="B C"/><path d="M61.979 283.509c13.643-13.638 13.643-35.748 0-49.386s-35.762-13.637-49.405 0-13.643 35.748 0 49.386 35.762 13.637 49.405 0z" class="B E F"/><path d="M557.157 308.063c17.633 0 31.927-14.288 31.927-31.914s-14.294-31.914-31.927-31.914-31.927 14.288-31.927 31.914 14.295 31.914 31.927 31.914z" class="B C"/><path d="M334.181 190.066l-8.613 13.688h18.348l-9.735-13.688z" class="B E F"/><g class="C"><path d="M212.647 62.708l-11.522 18.269h24.52l-12.998-18.269zm86.286 36.906c18.385 0 33.289-14.898 33.289-33.276s-14.904-33.276-33.289-33.276-33.288 14.898-33.288 33.276 14.903 33.276 33.288 33.276z" class="B"/></g><path d="M298.266 62.225l-1.873-3.574c-1.206-2.298-.312-5.135 1.987-6.34a3.21 3.21 0 0 0 1.348-4.326l-2.796-5.361a3.21 3.21 0 0 0-4.328-1.348l-2.44 1.277c-2.299 1.206-4.172 3.078-5.364 5.376l-.709 1.376c-1.235 2.369-1.221 5.191.014 7.56l5.236 10.014 3.49 6.681 5.236 10.014c1.235 2.369 3.548 3.986 6.201 4.326l1.533.199a12.55 12.55 0 0 0 7.478-1.333l2.44-1.277c1.561-.823 2.171-2.752 1.363-4.326l-2.796-5.362a3.23 3.23 0 0 0-4.328-1.362 4.7 4.7 0 0 1-6.342-1.986l-1.873-3.574-3.477-6.652z" class="D"/><path d="M542.427 441.691c0 3.801-3.079 6.893-6.896 6.893-3.803 0-6.896-3.078-6.896-6.893s3.079-6.894 6.896-6.894c3.817.014 6.896 3.092 6.896 6.894z" class="B E F"/><path d="M130.404 77.303c7.038 0 12.743-5.703 12.743-12.737s-5.705-12.737-12.743-12.737-12.742 5.703-12.742 12.737 5.705 12.737 12.742 12.737z" class="B D"/><path d="M478.234 254.277c7.038 0 12.743-5.703 12.743-12.737s-5.705-12.738-12.743-12.738-12.742 5.703-12.742 12.738 5.705 12.737 12.742 12.737z" class="B E F"/><path d="M77.078 326.828c6.857 0 12.416-5.556 12.416-12.411s-5.559-12.411-12.416-12.411-12.416 5.557-12.416 12.411 5.559 12.411 12.416 12.411z" class="B C"/><path d="M557.157 298.162c12.163 0 22.022-9.855 22.022-22.013s-9.859-22.014-22.022-22.014-22.022 9.856-22.022 22.014 9.859 22.013 22.022 22.013z" stroke="#fff" class="B E"/><path d="M538.439 67.615H385.816c-6.528 0-11.806 5.291-11.806 11.801v92.154c0 6.525 5.293 11.801 11.806 11.801h97.34v23.234c0 3.886 4.541 5.999 7.521 3.503l31.771-26.737h15.991c6.528 0 11.806-5.291 11.806-11.801V79.431a11.81 11.81 0 0 0-11.806-11.815z" class="B C"/><path d="M577.092 79.118c0 13.773-3.959 26.61-10.784 37.39-1.079 1.73-2.242 3.418-3.477 5.035-12.472 16.368-31.983 26.907-53.906 26.907-11.253 0-21.866-2.766-31.217-7.688-21.952-11.517-36.95-34.807-36.95-61.644 0-3.135.198-6.227.61-9.262 4.441-33.914 33.005-60.083 67.557-60.083 37.645 0 68.167 31.049 68.167 69.346z" class="H"/><path d="M562.831 121.529c-12.473 16.368-31.984 26.907-53.907 26.907-11.252 0-21.866-2.766-31.217-7.688 1.277-3.191 5.193-11.659 12.132-16.397 8.656-5.929 34.963-9.489 53.211-7.929 10.77.908 16.716 3.305 19.781 5.107z" class="I"/><g class="D"><path d="M478.232 43.942l.71 33.857s1.078 34.595 29.231 33.985c28.166-.61 34.111-43.346 34.111-43.346l-4.427-25.928s-32.92-21.957-59.625 1.432z"/><path d="M508.371 103.642s2.086 13.092-1.064 17.376 6.271 19.148 6.271 19.148l21.81-19.999s-1.447-14.666-1.05-27.503l-25.967 10.978z"/></g><path d="M478.39 51.715s8.102 2.581 16.772 1.816 11.706-4.255 11.706-4.255 2.895 1.22 7.606 1.22 8.216-2.284 8.216-2.284-3.193 5.475-1.831 12.468 5.932 8.808 5.932 8.808 2.894-6.993 7.903-6.993 6.84 5.319 5.548 12.312-9.351 8.666-9.351 8.666l3.434 9.205s12.984-13.914 14.502-29.262-6.229-19.914-6.229-19.914.653-11.404-14.573-15.347c-15.225-3.957-25.257-3.645-36.666 2.894 0 0-9.578-7.291-17.638-2.894-8.059 4.411-5.775 13.829-1.83 16.255 0 0-7.748 1.972-6.087 11.546 1.674 9.574 12.841 8.823 12.841 8.823l-.255-13.064z" class="G"/><path d="M508.172 111.784s20.476-5.418 22.49-19.106c0 0 5.08 19.844-22.49 26.581 0 0 .823-5.9 0-7.475z" fill="#d9d9d9"/><path d="M613.567 36.998c2.839-17.364-8.941-33.741-26.312-36.579s-33.754 8.938-36.593 26.301 8.941 33.741 26.312 36.579 33.754-8.938 36.593-26.301z" class="B C"/><path d="M578.527 40.439l-.113-1.475c-.341-3.078.681-6.44 3.533-9.858 2.568-3.021 3.987-5.248 3.987-7.815 0-2.908-1.83-4.851-5.42-4.908-2.058 0-4.328.681-5.761 1.773l-1.362-3.589c1.887-1.362 5.136-2.284 8.159-2.284 6.555 0 9.521 4.043 9.521 8.383 0 3.872-2.171 6.666-4.91 9.915-2.511 2.964-3.419 5.475-3.249 8.383l.057 1.475h-4.442zm-1.248 7.986c0-2.113 1.419-3.589 3.419-3.589s3.363 1.475 3.363 3.589c0 2-1.305 3.532-3.419 3.532-2.001 0-3.363-1.532-3.363-3.532z" class="D"/><path d="M527.923 406.457c-.099.326-.227.596-.383.809-2.696 3.9-5.534 7.687-8.528 11.347h-.014C421.6 538.255 171.139 538.255 171.139 538.255v-142.79H527.54s1.376 7.772.383 10.992z" fill="#a6d6f7"/><path d="M527.923 406.457a2.67 2.67 0 0 1-.383.809 175.42 175.42 0 0 1-8.528 11.347h-.014l-347.859 39.573v-51.729h356.784z" fill="#8cc6e5"/><path d="M334.732 294.46l-17.24 18.269s-3.533-3.631-7.762-9.191c-2.015-2.667-4.186-5.773-6.187-9.134-2.625-4.398-4.98-9.22-6.328-14.057-4.541-16.241-2.682-50.495-2.682-50.495s7.35.794 9.862 3.589c14.147 15.744 30.337 61.019 30.337 61.019z" class="J"/><path d="M269.927 354.133h-123.45l-11.281-94.892c-1.291-10.865 6.286-20.751 16.942-22.141l7.422-.964 94.332-12.255 16.035 130.252z" class="C"/><path d="M239.788 227.029s-40.171 12.908-42.356 16.241c-2.171 3.319 16.687 62.169 16.687 62.169l-3.633 48.708h81.804l4.129-46.481s8.755-9.603 9.294-25.475-11.181-52.339-11.181-52.339l-28.536-3.745-26.208.922z" class="J"/><path d="M251.281 135.613s-27.996-12.042-47.876 16.043.71 72.225.71 72.225l64.761-7.972c14.034-1.347 16.886-1.347 16.886-1.347s7.237-44.354-8.202-60.665c-15.452-16.298-26.279-18.284-26.279-18.284z" class="G"/><path d="M261.697 245.142l-23.64-16.198s1.944-6.198 1.461-12.397c-.113-1.375-.34-2.751-.738-4.056-.198-.653-.44-1.291-.723-1.915l23.64-1.177s.156 1.915.596 4.383c.354 1.929.879 4.198 1.674 6.17.567 1.461 1.277 2.751 2.157 3.645 3.618 3.674-4.427 21.545-4.427 21.545z" class="D"/><path d="M263.968 219.952c-3.037.099-16.077.297-24.449-3.405-.113-1.375-.34-2.751-.738-4.056 0 0 15.935 1.943 23.512 1.29.355 1.929.88 4.199 1.675 6.171z" fill="#d9d9d9"/><path d="M275.008 146.266l3.945 32.566s5.165 33.559-21.923 36.808c-27.088 3.262-36.198-28.042-36.198-28.042l-3.207-34.567c-.014 0 28.564-25.545 57.383-6.765z" class="D"/><path d="M262.649 148.79s-3.547 8.709-15.197 14.893c-10.33 5.475-20.022 6.993-20.022 6.993s-1.561 9.177-6.782 14.922c0 0-9.053-17.163-5.35-31.943 3.689-14.779 22.775-21.914 39.532-20.41 16.744 1.503 22.775 7.645 25.003 17.403s-1.49 22.95-1.49 22.95-3.59-21.758-15.694-24.808z" class="G"/><path d="M217.61 178.421s-3.221-24.766 15.878-37.914c12.444-8.567 28.11-6.284 28.11-6.284s-9.876-7.432-29.33 1.149-20.447 27.985-18.475 43.049h3.817z" class="H"/><g class="K"><path d="M174.63 354.132h-28.167l-11.281-94.891c-1.291-10.865 6.286-20.751 16.943-22.141l7.421-.965 15.084 117.997zm69.416-144.45c-12.927 0-22.519-8.992-22.944-9.404l1.731-1.886c.099.099 10.585 9.886 23.696 8.581l.242 2.567a25.25 25.25 0 0 1-2.725.142z"/></g><path d="M564.291 407.266H176.957c-10.359 0-20.235-4.27-27.117-11.745l-21.27-23.063c-8.258-8.95-1.688-23.12 10.713-23.12h378.126c13.069 0 25.626 4.908 35.02 13.688l21.838 20.382c9.294 8.667 2.937 23.858-9.976 23.858z" class="H"/><path d="M387.66 235.299l-2.98 1.73-.227-.369c3.547-2.255 8.783-5.787 8.429-6.638-.54-1.29-3.193-.61-5.166.454-1.135.624-3.206 1.858-5.207 3.064l-.142-.227c3.519-2.227 9.379-6.099 8.996-7.007-.539-1.291-3.192-.61-5.165.454-1.248.681-3.618 2.099-5.789 3.404l-.17-.269c3.49-2.256 8.031-5.376 7.705-6.17-.54-1.291-3.193-.61-5.165.453-2.668 1.447-10.402 6.227-10.402 6.227l-5.633 2.057c1.221-1.972 4.64-9.276 3.037-9.276s-6.002 5.092-7.833 10.34c-1.362 3.929-1.532 7.432-1.532 8.936l-49.395 62.736a97.34 97.34 0 0 0 2.938 4.283c5.122 7.078 17.056 8.638 23.952 3.263 5.449-4.256 9.734-9.873 13.948-15.617 7.932-10.808 19.752-39.503 22.519-46.368l11.182-10.467c3.065-1.986 6.967-4.667 6.683-5.376-.482-1.149-2.838-.553-4.583.383z" class="D"/><g class="G"><path d="M257.724 364.6s5.775 4.256 8.06 10.028-12.317 9.49-36.681 1.22c-17.723-6.014 12.203-24.481 28.621-11.248zm-9.166-153.357h-3.264c-1.164 0-2.114-.965-2.114-2.142v-2.014c0-1.178.95-2.142 2.114-2.142h3.264c1.163 0 2.114.964 2.114 2.142v1.007 1.007c-.014 1.177-.951 2.142-2.114 2.142z"/></g><path d="M231.574 185.768c1.802 9.021-2.895 17.617-10.501 19.191s-15.225-4.468-17.042-13.489c-1.802-9.021 2.895-17.617 10.501-19.191s15.239 4.468 17.042 13.489z" class="C"/><path d="M223.91 187.357c1.064 5.319-1.703 10.397-6.187 11.319s-8.982-2.639-10.046-7.958 1.703-10.397 6.187-11.319c4.484-.936 8.982 2.639 10.046 7.958z" class="H"/><path d="M204.045 239.71s-6.896 1.035-9.706 5.489c-12.004 19.092-35.36 77.488-35.36 77.488l22.533 9.957s29.628-34.311 32.352-50.637-9.819-42.297-9.819-42.297z" class="J"/><g class="D"><path d="M179.382 327.665l46.245 30.07-6.528 14.482s-41.618-14.95-54.417-24.623c-12.785-9.688-5.718-24.907-5.718-24.907s7.094-.837 20.418 4.978z"/><path d="M224.28 357.267l21.214-.737c5.619 0 15.41 9.219 14.331 12.169-1.092 2.951-12.331-6.085-12.331-6.085l-.638 1.206s9.975 6.085 10.514 8.397-1.716 1.943-4.98.553-8.159-4.524-8.159-4.524l-.539.652s9.436 5.815 9.436 7.929c0 2.128-6.797-.284-11.792-3.603l-.638 1.021s6.172 3.135 6.626 5.163-2.909 1.206-6.626-.553-7.166-1.943-11.976-2.681-10.515-4.297-10.515-4.297l6.073-14.61z"/></g><path d="M511.01 272.929l-22.178 111.188H324.516l22.05-110.55c.469-2.34 2.484-4.014 4.825-4.014H508.3c1.745 0 3.065 1.631 2.71 3.376z" class="C"/><path d="M324.514 384.117l-45.137-14.68c-1.59-.525-2.668-2-2.668-3.688a3.87 3.87 0 0 1 3.874-3.872h48.386l-4.455 22.24z" class="G"/><g class="I"><path d="M206.045 244.22s10.103 28.567 3.987 48.184c0 0 20.66-22.95-3.987-48.184zm103.683 59.318c-2.014-2.667-4.186-5.773-6.186-9.135 4.172-16.382-5.534-52.863-5.534-52.863 21.27 27.105 15.339 52.282 11.72 61.998z"/></g><path d="M356.457 276.149l132.375 107.968H337.896l18.561-107.968z" class="K"/><path d="M436.018 344.945c6.74-2.772 9.956-10.481 7.183-17.219s-10.485-9.952-17.226-7.18-9.955 10.481-7.182 17.219a13.2 13.2 0 0 0 17.225 7.18z" fill="#a6d6f7"/><g fill="#ffa9b3"><path d="M239.364 222.42l22.334 22.708s-3.873 5.475-10.316 5.334c-6.442-.157-10.074-8.341-11.89-12.61-1.831-4.269-5.549-8.922-5.549-8.922l5.421-6.51z"/><path d="M261.697 245.143s5.761 3.503 11.38 1.063c5.619-2.425 4.101-6.141 2.129-10.07-1.973-3.915-4.101-10.908-4.101-10.908l-6.414-3.688s1.135 14.936-2.994 23.603z"/></g><path d="M296.135 289.014l-56.276 5.446s12.615 9.05 32.041 6.312 24.235-11.758 24.235-11.758z" class="I"/><path d="M170.345 106.096H68.577c-6.485 0-11.749 5.263-11.749 11.745v26.964c0 6.482 5.264 11.744 11.749 11.744h85.734l27.783 16.056v-16.056-7.759-30.949c0-6.482-5.264-11.745-11.749-11.745z" class="B C"/><g stroke="#fff" stroke-linecap="round" stroke-linejoin="round" class="E"><path d="M64.647 118.295h106.011M64.647 131.23h106.011M64.647 144.167h106.011"/></g><path d="M176.177 419.634c2.668-22.013-14.715-18.708-26.606-7.092s-23.54 5.135-10.358-16.567 22.831-28.368 21.015-39.289c-1.831-10.922-11.352-6.142-27.84 2.936s-.908-14.638-2.157-37.134-23.597-11.262-25.47 7.688c-1.873 18.935 6.584 40.141-4.271 35.942-10.841-4.213-17.411-29.361-27.273-17.489s27.84 52.141 26.577 64.296-28.394-24.893-36.184-12.694 25.925 93.643 55.112 91.359c37.078-2.894 54.786-49.942 57.454-71.956z" class="I"/><g stroke="#aa4451" class="E"><path d="M116.083 332.828s-4.654 25.475-2.795 57.772l6.087 113.585"/><path d="M84.398 364.841s21.427 25.418 29.203 31.021l32.948-31.021M71.742 415.72s32.211 32.396 44.811 34.538l47.393-31.758"/></g><path d="M106.066 479.094s13.963-30.865 6.443-47.446-18.305-6.851-21.696 6.369-14.332 13.631-14.332-7.206 3.931-29.644-2.015-36.524-10.585.525-18.29 13.929-6.882-9.886-17.354-25.148-21.355 2.156-14.601 16.255c6.768 14.085 21.753 25.361 12.345 27.035s-24.747-13.192-26.606-.653 41.788 24.723 46.074 33.786c4.3 9.064-30.536-5.361-30.806 6.525s40.27 32.737 58.632 29.63 22.206-16.552 22.206-16.552z" class="J"/><g stroke="#aa4451" class="E"><path d="M32.508 392.33s53.14 85.345 64.322 111.855"/><path d="M23.795 432.84l37.376 6.666 7.691-32.127m-25.315 63.8l39.93 6.908 16.46-36.24"/></g><path d="M82.326 504.185h67.529l-5.804 34.07H89.364l-7.038-34.07z" class="K"/><g class="C"><path d="M150.678 513.604H82.114a4.55 4.55 0 0 1-4.555-4.554v-3.616a4.55 4.55 0 0 1 4.555-4.554h68.565a4.55 4.55 0 0 1 4.555 4.554v3.616c.014 2.511-2.029 4.554-4.555 4.554z"/><path d="M394.797 541.986c25.892 0 46.882-20.982 46.882-46.864s-20.99-46.864-46.882-46.864-46.883 20.981-46.883 46.864 20.99 46.864 46.883 46.864z" class="B"/></g><path d="M424.255 477.817h-58.93a2.92 2.92 0 0 0-2.923 2.922v32.453a2.92 2.92 0 0 0 2.923 2.922h58.93a2.92 2.92 0 0 0 2.923-2.922v-32.453a2.92 2.92 0 0 0-2.923-2.922zm.88 4.681l-27.67 18.085c-.241.156-.511.226-.78.226-.242 0-.483-.056-.696-.184l-32.224-18.085c-.682-.383-.923-1.248-.54-1.929a1.42 1.42 0 0 1 1.93-.539l31.487 17.66 26.946-17.617a1.42 1.42 0 0 1 1.958.411c.426.667.241 1.546-.411 1.972z" class="D"/><path d="M430.996 490.072c9.6 0 17.382-7.779 17.382-17.375s-7.782-17.376-17.382-17.376-17.383 7.78-17.383 17.376 7.783 17.375 17.383 17.375z" fill="#ffa9b3"/></g><defs><clipPath id="A"><path d="M0 0H614V542H0z" class="D"/></clipPath></defs></svg>